<svg width="477" height="953" viewBox="0 0 477 953" fill="none" xmlns="http://www.w3.org/2000/svg">
<path d="M477 -2.08503e-05C414.36 -2.90589e-05 352.332 12.325 294.46 36.2714C236.588 60.2177 184.004 95.3165 139.71 139.564C95.4166 183.811 60.281 236.34 36.3095 294.151C12.338 351.963 4.29419e-05 413.925 4.02067e-05 476.5C3.74714e-05 539.075 12.338 601.037 36.3095 658.849C60.281 716.66 95.4165 769.189 139.71 813.436C184.004 857.683 236.588 892.782 294.46 916.729C352.332 940.675 414.359 953 477 953L477 476.5L477 -2.08503e-05Z" fill="url(#paint0_linear_351_304)"/>
<defs>
<linearGradient id="paint0_linear_351_304" x1="-139.125" y1="234.746" x2="499.712" y2="874.253" gradientUnits="userSpaceOnUse">
<stop stop-color="#5B09E6" stop-opacity="0.65"/>
<stop offset="0.465133" stop-color="#5B09E6" stop-opacity="0"/>
</linearGradient>
</defs>
</svg>
