<svg width="30" height="22" viewBox="0 0 30 22" fill="none" xmlns="http://www.w3.org/2000/svg">
<path fill-rule="evenodd" clip-rule="evenodd" d="M18.75 22C25.315 20.7301 30 16.005 30 9.03344V0H17.5212V12.2222H22.5C22.5 14.9246 20.5462 18.2502 17.505 19.371L18.75 22ZM1.25 22C7.815 20.7301 12.4788 16.005 12.4788 9.03344V0H0V12.2222H5C5 14.9246 3.04625 18.2502 0.00625 19.371L1.25 22ZM1.95875 20.5871L1.6575 19.9516C4.65 18.2514 6.25 14.8683 6.25 12.2222V11H1.25V1.22222H11.2288V9.03344C11.2288 14.762 7.70375 19.1143 1.95875 20.5871ZM19.4587 20.5883L19.1575 19.9516C22.15 18.2514 23.75 14.8683 23.75 12.2222V11H18.7712V1.22222H28.75V9.03344C28.75 14.7608 25.2163 19.1131 19.4587 20.5883Z" fill="white" fill-opacity="0.5"/>
</svg>
