<?xml version="1.0" encoding="utf-8"?>
<!-- Generator: Adobe Illustrator 27.0.1, SVG Export Plug-In . SVG Version: 6.00 Build 0)  -->
<svg version="1.1" id="Capa_1" xmlns="http://www.w3.org/2000/svg" xmlns:xlink="http://www.w3.org/1999/xlink" x="0px" y="0px"
	 viewBox="0 0 1626 876" style="enable-background:new 0 0 1626 876;" xml:space="preserve">
<style type="text/css">
	.st0{fill:#681AFF;}
</style>
<g>
	<path class="st0" d="M473.1,545.8c51.1-23.4,92.3-58.3,123.3-104.7S643,344.3,643,289.9c0-80-28.4-148.3-85.2-204.9S432,0,351,0H0
		v876h173V571h130.4L481,876h186L473.1,545.8z M434.9,381.8C411.5,407.2,383.5,420,351,420H173V161h178c32.6,0,60.6,12.5,83.9,37.6
		c23.4,25,35.1,55.5,35.1,91.3C470,325.8,458.3,356.4,434.9,381.8z"/>
	<g>
		<path class="st0" d="M1454.3,546.8V876h171V265.5L1454.3,546.8z"/>
		<polygon class="st0" points="1626,0 1625.3,1.2 1619.4,10.8 1294.7,545 1197.5,704.9 1100.3,545 941.3,283.4 941.3,876 768.3,876 
			768.3,0 963.4,0 1197.5,385.1 1431.5,0 		"/>
	</g>
</g>
</svg>
